<?xml version="1.0" encoding="UTF-8" standalone="no"?>
<!DOCTYPE svg PUBLIC "-//W3C//DTD SVG 1.1//EN"
 "http://www.w3.org/Graphics/SVG/1.1/DTD/svg11.dtd">
<!-- Generated by graphviz version 2.38.0 (20140413.2041)
 -->
<!-- Title: controllers_diagram Pages: 1 -->
<svg width="541pt" height="484pt"
 viewBox="0.00 0.00 540.50 483.50" xmlns="http://www.w3.org/2000/svg" xmlns:xlink="http://www.w3.org/1999/xlink">
<g id="graph0" class="graph" transform="scale(1 1) rotate(0) translate(212.5 320)">
<title>controllers_diagram</title>
<polygon fill="none" stroke="none" points="-212.5,163.5 -212.5,-320 328,-320 328,163.5 -212.5,163.5"/>
<!-- _diagram_info -->
<g id="node1" class="node"><title>_diagram_info</title>
<text text-anchor="start" x="88" y="-143.6" font-family="Times,serif" font-size="13.00">Controllers diagram</text>
<text text-anchor="start" x="88" y="-129.6" font-family="Times,serif" font-size="13.00">Date: Nov 21 2017 &#45; 13:57</text>
<text text-anchor="start" x="88" y="-115.6" font-family="Times,serif" font-size="13.00">Migration version: 20171116103525</text>
<text text-anchor="start" x="88" y="-101.6" font-family="Times,serif" font-size="13.00">Generated by RailRoady 1.5.3</text>
<text text-anchor="start" x="88" y="-87.6" font-family="Times,serif" font-size="13.00">http://railroady.prestonlee.com</text>
</g>
<!-- LikeController -->
<g id="node2" class="node"><title>LikeController</title>
<path fill="none" stroke="black" d="M-180.5,-1C-180.5,-1 -107.5,-1 -107.5,-1 -101.5,-1 -95.5,-7 -95.5,-13 -95.5,-13 -95.5,-97 -95.5,-97 -95.5,-103 -101.5,-109 -107.5,-109 -107.5,-109 -180.5,-109 -180.5,-109 -186.5,-109 -192.5,-103 -192.5,-97 -192.5,-97 -192.5,-13 -192.5,-13 -192.5,-7 -186.5,-1 -180.5,-1"/>
<text text-anchor="middle" x="-144" y="-93.8" font-family="Times,serif" font-size="14.00">LikeController</text>
<polyline fill="none" stroke="black" points="-192.5,-86 -95.5,-86 "/>
<text text-anchor="start" x="-184.5" y="-70.8" font-family="Times,serif" font-size="14.00">create</text>
<text text-anchor="start" x="-184.5" y="-55.8" font-family="Times,serif" font-size="14.00">set_video</text>
<polyline fill="none" stroke="black" points="-192.5,-48 -95.5,-48 "/>
<polyline fill="none" stroke="black" points="-192.5,-24 -95.5,-24 "/>
<text text-anchor="start" x="-184.5" y="-8.8" font-family="Times,serif" font-size="14.00">_layout</text>
</g>
<!-- DislikeController -->
<g id="node3" class="node"><title>DislikeController</title>
<path fill="none" stroke="black" d="M-196.5,143C-196.5,143 -109.5,143 -109.5,143 -103.5,143 -97.5,137 -97.5,131 -97.5,131 -97.5,47 -97.5,47 -97.5,41 -103.5,35 -109.5,35 -109.5,35 -196.5,35 -196.5,35 -202.5,35 -208.5,41 -208.5,47 -208.5,47 -208.5,131 -208.5,131 -208.5,137 -202.5,143 -196.5,143"/>
<text text-anchor="middle" x="-153" y="50.2" font-family="Times,serif" font-size="14.00">DislikeController</text>
<polyline fill="none" stroke="black" points="-208.5,58 -97.5,58 "/>
<text text-anchor="start" x="-200.5" y="73.2" font-family="Times,serif" font-size="14.00">create</text>
<text text-anchor="start" x="-200.5" y="88.2" font-family="Times,serif" font-size="14.00">set_video</text>
<polyline fill="none" stroke="black" points="-208.5,96 -97.5,96 "/>
<polyline fill="none" stroke="black" points="-208.5,120 -97.5,120 "/>
<text text-anchor="start" x="-200.5" y="135.2" font-family="Times,serif" font-size="14.00">_layout</text>
</g>
<!-- OmniauthCallbacksController -->
<g id="node4" class="node"><title>OmniauthCallbacksController</title>
<path fill="none" stroke="black" d="M92,79.5C92,79.5 248,79.5 248,79.5 254,79.5 260,73.5 260,67.5 260,67.5 260,-31.5 260,-31.5 260,-37.5 254,-43.5 248,-43.5 248,-43.5 92,-43.5 92,-43.5 86,-43.5 80,-37.5 80,-31.5 80,-31.5 80,67.5 80,67.5 80,73.5 86,79.5 92,79.5"/>
<text text-anchor="middle" x="170" y="-28.3" font-family="Times,serif" font-size="14.00">OmniauthCallbacksController</text>
<polyline fill="none" stroke="black" points="80,-20.5 260,-20.5 "/>
<text text-anchor="start" x="88" y="-5.3" font-family="Times,serif" font-size="14.00">facebook</text>
<text text-anchor="start" x="88" y="9.7" font-family="Times,serif" font-size="14.00">failure</text>
<text text-anchor="start" x="88" y="24.7" font-family="Times,serif" font-size="14.00">google_oauth2</text>
<polyline fill="none" stroke="black" points="80,32.5 260,32.5 "/>
<polyline fill="none" stroke="black" points="80,56.5 260,56.5 "/>
<text text-anchor="start" x="88" y="71.7" font-family="Times,serif" font-size="14.00">_layout</text>
</g>
<!-- VideosController -->
<g id="node5" class="node"><title>VideosController</title>
<path fill="none" stroke="black" d="M-52,159C-52,159 34,159 34,159 40,159 46,153 46,147 46,147 46,-117 46,-117 46,-123 40,-129 34,-129 34,-129 -52,-129 -52,-129 -58,-129 -64,-123 -64,-117 -64,-117 -64,147 -64,147 -64,153 -58,159 -52,159"/>
<text text-anchor="middle" x="-9" y="-113.8" font-family="Times,serif" font-size="14.00">VideosController</text>
<polyline fill="none" stroke="black" points="-64,-106 46,-106 "/>
<text text-anchor="start" x="-56" y="-90.8" font-family="Times,serif" font-size="14.00">autocomplete</text>
<text text-anchor="start" x="-56" y="-75.8" font-family="Times,serif" font-size="14.00">create</text>
<text text-anchor="start" x="-56" y="-60.8" font-family="Times,serif" font-size="14.00">destroy</text>
<text text-anchor="start" x="-56" y="-45.8" font-family="Times,serif" font-size="14.00">disliked</text>
<text text-anchor="start" x="-56" y="-30.8" font-family="Times,serif" font-size="14.00">edit</text>
<text text-anchor="start" x="-56" y="-15.8" font-family="Times,serif" font-size="14.00">index</text>
<text text-anchor="start" x="-56" y="-0.8" font-family="Times,serif" font-size="14.00">liked</text>
<text text-anchor="start" x="-56" y="14.2" font-family="Times,serif" font-size="14.00">myvideo</text>
<text text-anchor="start" x="-56" y="29.2" font-family="Times,serif" font-size="14.00">new</text>
<text text-anchor="start" x="-56" y="44.2" font-family="Times,serif" font-size="14.00">search</text>
<text text-anchor="start" x="-56" y="59.2" font-family="Times,serif" font-size="14.00">show</text>
<text text-anchor="start" x="-56" y="74.2" font-family="Times,serif" font-size="14.00">update</text>
<polyline fill="none" stroke="black" points="-64,82 46,82 "/>
<polyline fill="none" stroke="black" points="-64,106 46,106 "/>
<text text-anchor="start" x="-56" y="121.2" font-family="Times,serif" font-size="14.00">_layout</text>
<text text-anchor="start" x="-56" y="136.2" font-family="Times,serif" font-size="14.00">set_video</text>
<text text-anchor="start" x="-56" y="151.2" font-family="Times,serif" font-size="14.00">video_params</text>
</g>
<!-- ApplicationController -->
<g id="node6" class="node"><title>ApplicationController</title>
<path fill="none" stroke="black" d="M-132,-160.5C-132,-160.5 38,-160.5 38,-160.5 44,-160.5 50,-166.5 50,-172.5 50,-172.5 50,-241.5 50,-241.5 50,-247.5 44,-253.5 38,-253.5 38,-253.5 -132,-253.5 -132,-253.5 -138,-253.5 -144,-247.5 -144,-241.5 -144,-241.5 -144,-172.5 -144,-172.5 -144,-166.5 -138,-160.5 -132,-160.5"/>
<text text-anchor="middle" x="-47" y="-238.3" font-family="Times,serif" font-size="14.00">ApplicationController</text>
<polyline fill="none" stroke="black" points="-144,-230.5 50,-230.5 "/>
<polyline fill="none" stroke="black" points="-144,-206.5 50,-206.5 "/>
<text text-anchor="start" x="-136" y="-191.3" font-family="Times,serif" font-size="14.00">configure_permitted_parameters</text>
<polyline fill="none" stroke="black" points="-144,-183.5 50,-183.5 "/>
<text text-anchor="start" x="-136" y="-168.3" font-family="Times,serif" font-size="14.00">_layout</text>
</g>
<!-- CommentsController -->
<g id="node7" class="node"><title>CommentsController</title>
<path fill="none" stroke="black" d="M204,-192.5C204,-192.5 312,-192.5 312,-192.5 318,-192.5 324,-198.5 324,-204.5 324,-204.5 324,-303.5 324,-303.5 324,-309.5 318,-315.5 312,-315.5 312,-315.5 204,-315.5 204,-315.5 198,-315.5 192,-309.5 192,-303.5 192,-303.5 192,-204.5 192,-204.5 192,-198.5 198,-192.5 204,-192.5"/>
<text text-anchor="middle" x="258" y="-300.3" font-family="Times,serif" font-size="14.00">CommentsController</text>
<polyline fill="none" stroke="black" points="192,-292.5 324,-292.5 "/>
<text text-anchor="start" x="200" y="-277.3" font-family="Times,serif" font-size="14.00">create</text>
<polyline fill="none" stroke="black" points="192,-269.5 324,-269.5 "/>
<polyline fill="none" stroke="black" points="192,-245.5 324,-245.5 "/>
<text text-anchor="start" x="200" y="-230.3" font-family="Times,serif" font-size="14.00">_layout</text>
<text text-anchor="start" x="200" y="-215.3" font-family="Times,serif" font-size="14.00">comment_params</text>
<text text-anchor="start" x="200" y="-200.3" font-family="Times,serif" font-size="14.00">set_video</text>
</g>
</g>
</svg>
