<?xml version="1.0" encoding="UTF-8" standalone="no"?>
<!DOCTYPE svg PUBLIC "-//W3C//DTD SVG 1.1//EN"
 "http://www.w3.org/Graphics/SVG/1.1/DTD/svg11.dtd">
<!-- Generated by graphviz version 2.38.0 (20140413.2041)
 -->
<!-- Title: models_diagram Pages: 1 -->
<svg width="551pt" height="232pt"
 viewBox="0.00 0.00 551.40 232.00" xmlns="http://www.w3.org/2000/svg" xmlns:xlink="http://www.w3.org/1999/xlink">
<g id="graph0" class="graph" transform="scale(1 1) rotate(0) translate(4 228)">
<title>models_diagram</title>
<polygon fill="none" stroke="none" points="-4,4 -4,-228 547.397,-228 547.397,4 -4,4"/>
<!-- _diagram_info -->
<g id="node1" class="node"><title>_diagram_info</title>
<text text-anchor="start" x="18.8973" y="-209.6" font-family="Times,serif" font-size="13.00">Models diagram</text>
<text text-anchor="start" x="18.8973" y="-195.6" font-family="Times,serif" font-size="13.00">Date: Nov 21 2017 &#45; 13:57</text>
<text text-anchor="start" x="18.8973" y="-181.6" font-family="Times,serif" font-size="13.00">Migration version: 20171116103525</text>
<text text-anchor="start" x="18.8973" y="-167.6" font-family="Times,serif" font-size="13.00">Generated by RailRoady 1.5.3</text>
<text text-anchor="start" x="18.8973" y="-153.6" font-family="Times,serif" font-size="13.00">http://railroady.prestonlee.com</text>
</g>
<!-- Comment -->
<g id="node2" class="node"><title>Comment</title>
<ellipse fill="none" stroke="black" cx="123.897" cy="-18" rx="46.2923" ry="18"/>
<text text-anchor="middle" x="123.897" y="-14.3" font-family="Times,serif" font-size="14.00">Comment</text>
</g>
<!-- Comment&#45;&gt;Comment -->
<g id="edge1" class="edge"><title>Comment&#45;&gt;Comment</title>
<path fill="none" stroke="#307ec4" d="M175.168,-24.1314C182.846,-23.1815 188.043,-21.1377 188.043,-18 188.043,-15.1238 183.676,-13.1667 177.034,-12.1289"/>
<ellipse fill="none" stroke="#307ec4" cx="170.755" cy="-24.4387" rx="4" ry="4"/>
<polygon fill="#307ec4" stroke="#307ec4" points="176.731,-12.104 167.134,-6.79855 171.748,-11.6937 166.765,-11.2834 166.765,-11.2834 166.765,-11.2834 171.748,-11.6937 166.396,-15.7682 176.731,-12.104 176.731,-12.104"/>
<text text-anchor="middle" x="206.543" y="-14.3" font-family="Times,serif" font-size="14.00">replies</text>
</g>
<!-- User -->
<g id="node3" class="node"><title>User</title>
<ellipse fill="none" stroke="black" cx="269.897" cy="-185" rx="27.0966" ry="18"/>
<text text-anchor="middle" x="269.897" y="-181.3" font-family="Times,serif" font-size="14.00">User</text>
</g>
<!-- User&#45;&gt;Comment -->
<g id="edge2" class="edge"><title>User&#45;&gt;Comment</title>
<path fill="none" stroke="#e81909" d="M251.153,-162.817C223.911,-132.029 173.528,-75.089 145.011,-42.8612"/>
<ellipse fill="none" stroke="#e81909" cx="254.033" cy="-166.071" rx="4.00002" ry="4.00002"/>
<polygon fill="#e81909" stroke="#e81909" points="144.886,-42.7202 141.629,-32.249 141.573,-38.9756 138.259,-35.231 138.259,-35.231 138.259,-35.231 141.573,-38.9756 134.889,-38.2131 144.886,-42.7202 144.886,-42.7202"/>
</g>
<!-- Video -->
<g id="node4" class="node"><title>Video</title>
<ellipse fill="none" stroke="black" cx="269.897" cy="-91" rx="32.4942" ry="18"/>
<text text-anchor="middle" x="269.897" y="-87.3" font-family="Times,serif" font-size="14.00">Video</text>
</g>
<!-- User&#45;&gt;Video -->
<g id="edge3" class="edge"><title>User&#45;&gt;Video</title>
<path fill="none" stroke="#104fbb" d="M269.897,-158.451C269.897,-146.315 269.897,-131.795 269.897,-119.427"/>
<ellipse fill="none" stroke="#104fbb" cx="269.897" cy="-162.696" rx="4" ry="4"/>
<polygon fill="#104fbb" stroke="#104fbb" points="269.897,-119.227 274.397,-109.227 269.897,-114.227 269.897,-109.227 269.897,-109.227 269.897,-109.227 269.897,-114.227 265.397,-109.227 269.897,-119.227 269.897,-119.227"/>
</g>
<!-- View -->
<g id="node5" class="node"><title>View</title>
<ellipse fill="none" stroke="black" cx="29.8973" cy="-18" rx="29.795" ry="18"/>
<text text-anchor="middle" x="29.8973" y="-14.3" font-family="Times,serif" font-size="14.00">View</text>
</g>
<!-- User&#45;&gt;View -->
<g id="edge6" class="edge"><title>User&#45;&gt;View</title>
<path fill="none" stroke="#f90d22" d="M251.93,-162.731C246.471,-156.93 240.231,-150.901 233.897,-146 206.993,-125.184 196.023,-126.574 166.897,-109 128.201,-85.6515 84.7918,-56.6357 57.4094,-37.9697"/>
<ellipse fill="none" stroke="#f90d22" cx="254.823" cy="-165.912" rx="4.00002" ry="4.00002"/>
<polygon fill="#f90d22" stroke="#f90d22" points="57.363,-37.9381 51.6486,-28.5788 53.2358,-35.1157 49.1085,-32.2934 49.1085,-32.2934 49.1085,-32.2934 53.2358,-35.1157 46.5684,-36.0079 57.363,-37.9381 57.363,-37.9381"/>
</g>
<!-- Like -->
<g id="node6" class="node"><title>Like</title>
<ellipse fill="none" stroke="black" cx="431.897" cy="-18" rx="27" ry="18"/>
<text text-anchor="middle" x="431.897" y="-14.3" font-family="Times,serif" font-size="14.00">Like</text>
</g>
<!-- User&#45;&gt;Like -->
<g id="edge4" class="edge"><title>User&#45;&gt;Like</title>
<path fill="none" stroke="#fb2eeb" d="M289.721,-163.6C295.273,-157.898 301.315,-151.702 306.897,-146 343.181,-108.936 385.553,-65.9483 410.476,-40.6926"/>
<ellipse fill="none" stroke="#fb2eeb" cx="286.724" cy="-166.68" rx="4.00002" ry="4.00002"/>
<polygon fill="#fb2eeb" stroke="#fb2eeb" points="410.6,-40.5672 420.827,-36.6113 414.112,-37.0087 417.625,-33.4501 417.625,-33.4501 417.625,-33.4501 414.112,-37.0087 414.422,-30.289 410.6,-40.5672 410.6,-40.5672"/>
</g>
<!-- Dislike -->
<g id="node7" class="node"><title>Dislike</title>
<ellipse fill="none" stroke="black" cx="350.897" cy="-18" rx="36.2938" ry="18"/>
<text text-anchor="middle" x="350.897" y="-14.3" font-family="Times,serif" font-size="14.00">Dislike</text>
</g>
<!-- User&#45;&gt;Dislike -->
<g id="edge5" class="edge"><title>User&#45;&gt;Dislike</title>
<path fill="none" stroke="#0234ee" d="M283.327,-160.613C291.586,-145.948 302.215,-126.557 310.897,-109 321.385,-87.7912 332.222,-63.215 339.966,-45.1083"/>
<ellipse fill="none" stroke="#0234ee" cx="281.218" cy="-164.337" rx="4.00002" ry="4.00002"/>
<polygon fill="#0234ee" stroke="#0234ee" points="340.02,-44.9817 348.071,-37.5359 341.974,-40.3794 343.929,-35.7771 343.929,-35.7771 343.929,-35.7771 341.974,-40.3794 339.786,-34.0183 340.02,-44.9817 340.02,-44.9817"/>
</g>
<!-- Video&#45;&gt;Comment -->
<g id="edge10" class="edge"><title>Video&#45;&gt;Comment</title>
<path fill="none" stroke="#2ff658" d="M238.794,-74.8742C215.982,-63.7809 184.919,-48.6748 160.842,-36.9664"/>
<ellipse fill="none" stroke="#2ff658" cx="242.518" cy="-76.6853" rx="4.00002" ry="4.00002"/>
<polygon fill="#2ff658" stroke="#2ff658" points="160.652,-36.8741 153.627,-28.4539 156.156,-34.6874 151.659,-32.5007 151.659,-32.5007 151.659,-32.5007 156.156,-34.6874 149.691,-36.5476 160.652,-36.8741 160.652,-36.8741"/>
</g>
<!-- Video&#45;&gt;View -->
<g id="edge11" class="edge"><title>Video&#45;&gt;View</title>
<path fill="none" stroke="#87eeac" d="M232.139,-81.6286C191.36,-72.1787 124.732,-55.5476 68.8973,-36 66.6622,-35.2175 64.3752,-34.3643 62.0843,-33.4705"/>
<ellipse fill="none" stroke="#87eeac" cx="236.289" cy="-82.5822" rx="4.00001" ry="4.00001"/>
<polygon fill="#87eeac" stroke="#87eeac" points="62.0185,-33.4435 54.4784,-25.4812 57.3935,-31.5436 52.7685,-29.6437 52.7685,-29.6437 52.7685,-29.6437 57.3935,-31.5436 51.0586,-33.8062 62.0185,-33.4435 62.0185,-33.4435"/>
</g>
<!-- Video&#45;&gt;Like -->
<g id="edge8" class="edge"><title>Video&#45;&gt;Like</title>
<path fill="none" stroke="#96664f" d="M302.673,-76.3376C328.187,-65.6095 364.43,-50.167 395.897,-36 397.694,-35.1913 399.536,-34.352 401.392,-33.4989"/>
<ellipse fill="none" stroke="#96664f" cx="298.804" cy="-77.961" rx="4.00002" ry="4.00002"/>
<polygon fill="#96664f" stroke="#96664f" points="401.57,-33.4161 412.535,-33.276 406.103,-31.3062 410.636,-29.1963 410.636,-29.1963 410.636,-29.1963 406.103,-31.3062 408.737,-25.1166 401.57,-33.4161 401.57,-33.4161"/>
</g>
<!-- Video&#45;&gt;Dislike -->
<g id="edge9" class="edge"><title>Video&#45;&gt;Dislike</title>
<path fill="none" stroke="#b3ede2" d="M292.812,-69.9145C303.209,-60.8006 315.526,-50.0045 326.136,-40.7043"/>
<ellipse fill="none" stroke="#b3ede2" cx="289.689" cy="-72.6521" rx="4.00002" ry="4.00002"/>
<polygon fill="#b3ede2" stroke="#b3ede2" points="326.337,-40.5283 336.823,-37.3207 330.097,-37.2325 333.857,-33.9367 333.857,-33.9367 333.857,-33.9367 330.097,-37.2325 330.891,-30.5527 326.337,-40.5283 326.337,-40.5283"/>
</g>
<!-- Tag -->
<g id="node9" class="node"><title>Tag</title>
<ellipse fill="none" stroke="black" cx="269.897" cy="-18" rx="27" ry="18"/>
<text text-anchor="middle" x="269.897" y="-14.3" font-family="Times,serif" font-size="14.00">Tag</text>
</g>
<!-- Video&#45;&gt;Tag -->
<g id="edge7" class="edge"><title>Video&#45;&gt;Tag</title>
<path fill="none" stroke="#3a7927" d="M269.897,-62.7534C269.897,-57.2761 269.897,-51.5214 269.897,-46.0508"/>
<polygon fill="#3a7927" stroke="#3a7927" points="269.897,-62.8129 265.397,-72.8128 269.897,-67.8129 269.897,-72.8129 269.897,-72.8129 269.897,-72.8129 269.897,-67.8129 274.397,-72.8129 269.897,-62.8129 269.897,-62.8129"/>
<polygon fill="#3a7927" stroke="#3a7927" points="269.897,-46.0288 274.397,-36.0288 269.897,-41.0288 269.897,-36.0288 269.897,-36.0288 269.897,-36.0288 269.897,-41.0288 265.397,-36.0289 269.897,-46.0288 269.897,-46.0288"/>
</g>
<!-- ApplicationRecord -->
<g id="node8" class="node"><title>ApplicationRecord</title>
<ellipse fill="none" stroke="black" cx="392.897" cy="-185" rx="77.1866" ry="18"/>
<text text-anchor="middle" x="392.897" y="-181.3" font-family="Times,serif" font-size="14.00">ApplicationRecord</text>
</g>
<!-- Ability -->
<g id="node10" class="node"><title>Ability</title>
<polygon fill="none" stroke="black" points="543.397,-203 488.397,-203 488.397,-167 543.397,-167 543.397,-203"/>
<text text-anchor="middle" x="515.897" y="-181.3" font-family="Times,serif" font-size="14.00">Ability</text>
</g>
</g>
</svg>
