<?xml version="1.0" encoding="UTF-8" standalone="no"?>
<!DOCTYPE svg PUBLIC "-//W3C//DTD SVG 1.1//EN"
 "http://www.w3.org/Graphics/SVG/1.1/DTD/svg11.dtd">
<!-- Generated by graphviz version 2.38.0 (20140413.2041)
 -->
<!-- Title: models_diagram Pages: 1 -->
<svg width="825pt" height="823pt"
 viewBox="0.00 0.00 824.50 823.00" xmlns="http://www.w3.org/2000/svg" xmlns:xlink="http://www.w3.org/1999/xlink">
<g id="graph0" class="graph" transform="scale(1 1) rotate(0) translate(4 819)">
<title>models_diagram</title>
<polygon fill="none" stroke="none" points="-4,4 -4,-819 820.5,-819 820.5,4 -4,4"/>
<!-- _diagram_info -->
<g id="node1" class="node"><title>_diagram_info</title>
<text text-anchor="start" x="116" y="-636.1" font-family="Times,serif" font-size="13.00">Models diagram</text>
<text text-anchor="start" x="116" y="-622.1" font-family="Times,serif" font-size="13.00">Date: Nov 21 2017 &#45; 13:57</text>
<text text-anchor="start" x="116" y="-608.1" font-family="Times,serif" font-size="13.00">Migration version: 20171116103525</text>
<text text-anchor="start" x="116" y="-594.1" font-family="Times,serif" font-size="13.00">Generated by RailRoady 1.5.3</text>
<text text-anchor="start" x="116" y="-580.1" font-family="Times,serif" font-size="13.00">http://railroady.prestonlee.com</text>
</g>
<!-- Comment -->
<g id="node2" class="node"><title>Comment</title>
<path fill="none" stroke="black" d="M162,-0.5C162,-0.5 296,-0.5 296,-0.5 302,-0.5 308,-6.5 308,-12.5 308,-12.5 308,-124.5 308,-124.5 308,-130.5 302,-136.5 296,-136.5 296,-136.5 162,-136.5 162,-136.5 156,-136.5 150,-130.5 150,-124.5 150,-124.5 150,-12.5 150,-12.5 150,-6.5 156,-0.5 162,-0.5"/>
<text text-anchor="middle" x="229" y="-121.3" font-family="Times,serif" font-size="14.00">Comment</text>
<polyline fill="none" stroke="black" points="150,-113.5 308,-113.5 "/>
<text text-anchor="start" x="158" y="-98.3" font-family="Times,serif" font-size="14.00">id :bigint(20)</text>
<text text-anchor="start" x="158" y="-83.3" font-family="Times,serif" font-size="14.00">commentor_id :bigint(20)</text>
<text text-anchor="start" x="158" y="-68.3" font-family="Times,serif" font-size="14.00">body :text</text>
<text text-anchor="start" x="158" y="-53.3" font-family="Times,serif" font-size="14.00">comments_id :bigint(20)</text>
<text text-anchor="start" x="158" y="-38.3" font-family="Times,serif" font-size="14.00">video_id :bigint(20)</text>
<text text-anchor="start" x="158" y="-23.3" font-family="Times,serif" font-size="14.00">created_at :datetime</text>
<text text-anchor="start" x="158" y="-8.3" font-family="Times,serif" font-size="14.00">updated_at :datetime</text>
</g>
<!-- Comment&#45;&gt;Comment -->
<g id="edge1" class="edge"><title>Comment&#45;&gt;Comment</title>
<path fill="none" stroke="#c61b73" d="M315.872,-80.3925C322.155,-77.7066 326,-73.7425 326,-68.5 326,-63.8152 322.93,-60.1513 317.793,-57.5081"/>
<ellipse fill="none" stroke="#c61b73" cx="311.981" cy="-81.6104" rx="4.00001" ry="4.00001"/>
<polygon fill="#c61b73" stroke="#c61b73" points="317.619,-57.4484 309.627,-49.9396 312.891,-55.8216 308.163,-54.1948 308.163,-54.1948 308.163,-54.1948 312.891,-55.8216 306.699,-58.4499 317.619,-57.4484 317.619,-57.4484"/>
<text text-anchor="middle" x="344.5" y="-64.8" font-family="Times,serif" font-size="14.00">replies</text>
</g>
<!-- User -->
<g id="node3" class="node"><title>User</title>
<path fill="none" stroke="black" d="M352,-408.5C352,-408.5 542,-408.5 542,-408.5 548,-408.5 554,-414.5 554,-420.5 554,-420.5 554,-802.5 554,-802.5 554,-808.5 548,-814.5 542,-814.5 542,-814.5 352,-814.5 352,-814.5 346,-814.5 340,-808.5 340,-802.5 340,-802.5 340,-420.5 340,-420.5 340,-414.5 346,-408.5 352,-408.5"/>
<text text-anchor="middle" x="447" y="-799.3" font-family="Times,serif" font-size="14.00">User</text>
<polyline fill="none" stroke="black" points="340,-791.5 554,-791.5 "/>
<text text-anchor="start" x="348" y="-776.3" font-family="Times,serif" font-size="14.00">id :bigint(20)</text>
<text text-anchor="start" x="348" y="-761.3" font-family="Times,serif" font-size="14.00">first_name :varchar(255)</text>
<text text-anchor="start" x="348" y="-746.3" font-family="Times,serif" font-size="14.00">last_name :varchar(255)</text>
<text text-anchor="start" x="348" y="-731.3" font-family="Times,serif" font-size="14.00">firebase_id :varchar(255)</text>
<text text-anchor="start" x="348" y="-716.3" font-family="Times,serif" font-size="14.00">date_of_birth :date</text>
<text text-anchor="start" x="348" y="-701.3" font-family="Times,serif" font-size="14.00">role :int(11)</text>
<text text-anchor="start" x="348" y="-686.3" font-family="Times,serif" font-size="14.00">email :varchar(255)</text>
<text text-anchor="start" x="348" y="-671.3" font-family="Times,serif" font-size="14.00">encrypted_password :varchar(255)</text>
<text text-anchor="start" x="348" y="-656.3" font-family="Times,serif" font-size="14.00">reset_password_token :varchar(255)</text>
<text text-anchor="start" x="348" y="-641.3" font-family="Times,serif" font-size="14.00">reset_password_sent_at :datetime</text>
<text text-anchor="start" x="348" y="-626.3" font-family="Times,serif" font-size="14.00">remember_created_at :datetime</text>
<text text-anchor="start" x="348" y="-611.3" font-family="Times,serif" font-size="14.00">sign_in_count :int(11)</text>
<text text-anchor="start" x="348" y="-596.3" font-family="Times,serif" font-size="14.00">current_sign_in_at :datetime</text>
<text text-anchor="start" x="348" y="-581.3" font-family="Times,serif" font-size="14.00">last_sign_in_at :datetime</text>
<text text-anchor="start" x="348" y="-566.3" font-family="Times,serif" font-size="14.00">current_sign_in_ip :varchar(255)</text>
<text text-anchor="start" x="348" y="-551.3" font-family="Times,serif" font-size="14.00">last_sign_in_ip :varchar(255)</text>
<text text-anchor="start" x="348" y="-536.3" font-family="Times,serif" font-size="14.00">confirmation_token :varchar(255)</text>
<text text-anchor="start" x="348" y="-521.3" font-family="Times,serif" font-size="14.00">confirmed_at :datetime</text>
<text text-anchor="start" x="348" y="-506.3" font-family="Times,serif" font-size="14.00">confirmation_sent_at :datetime</text>
<text text-anchor="start" x="348" y="-491.3" font-family="Times,serif" font-size="14.00">unconfirmed_email :varchar(255)</text>
<text text-anchor="start" x="348" y="-476.3" font-family="Times,serif" font-size="14.00">created_at :datetime</text>
<text text-anchor="start" x="348" y="-461.3" font-family="Times,serif" font-size="14.00">updated_at :datetime</text>
<text text-anchor="start" x="348" y="-446.3" font-family="Times,serif" font-size="14.00">profile_picture :varchar(255)</text>
<text text-anchor="start" x="348" y="-431.3" font-family="Times,serif" font-size="14.00">provider :varchar(255)</text>
<text text-anchor="start" x="348" y="-416.3" font-family="Times,serif" font-size="14.00">uid :varchar(255)</text>
</g>
<!-- User&#45;&gt;Comment -->
<g id="edge2" class="edge"><title>User&#45;&gt;Comment</title>
<path fill="none" stroke="#376660" d="M362.453,-400.685C326.425,-311.275 286.639,-212.54 259.963,-146.339"/>
<ellipse fill="none" stroke="#376660" cx="364.02" cy="-404.572" rx="4.00001" ry="4.00001"/>
<polygon fill="#376660" stroke="#376660" points="259.862,-146.088 260.298,-135.13 257.993,-141.45 256.124,-136.812 256.124,-136.812 256.124,-136.812 257.993,-141.45 251.95,-138.494 259.862,-146.088 259.862,-146.088"/>
</g>
<!-- Video -->
<g id="node4" class="node"><title>Video</title>
<path fill="none" stroke="black" d="M385.5,-174.5C385.5,-174.5 508.5,-174.5 508.5,-174.5 514.5,-174.5 520.5,-180.5 520.5,-186.5 520.5,-186.5 520.5,-358.5 520.5,-358.5 520.5,-364.5 514.5,-370.5 508.5,-370.5 508.5,-370.5 385.5,-370.5 385.5,-370.5 379.5,-370.5 373.5,-364.5 373.5,-358.5 373.5,-358.5 373.5,-186.5 373.5,-186.5 373.5,-180.5 379.5,-174.5 385.5,-174.5"/>
<text text-anchor="middle" x="447" y="-355.3" font-family="Times,serif" font-size="14.00">Video</text>
<polyline fill="none" stroke="black" points="373.5,-347.5 520.5,-347.5 "/>
<text text-anchor="start" x="381.5" y="-332.3" font-family="Times,serif" font-size="14.00">id :bigint(20)</text>
<text text-anchor="start" x="381.5" y="-317.3" font-family="Times,serif" font-size="14.00">title :varchar(255)</text>
<text text-anchor="start" x="381.5" y="-302.3" font-family="Times,serif" font-size="14.00">description :text</text>
<text text-anchor="start" x="381.5" y="-287.3" font-family="Times,serif" font-size="14.00">uploader_id :bigint(20)</text>
<text text-anchor="start" x="381.5" y="-272.3" font-family="Times,serif" font-size="14.00">published :tinyint(1)</text>
<text text-anchor="start" x="381.5" y="-257.3" font-family="Times,serif" font-size="14.00">created_at :datetime</text>
<text text-anchor="start" x="381.5" y="-242.3" font-family="Times,serif" font-size="14.00">updated_at :datetime</text>
<text text-anchor="start" x="381.5" y="-227.3" font-family="Times,serif" font-size="14.00">preview_images :json</text>
<text text-anchor="start" x="381.5" y="-212.3" font-family="Times,serif" font-size="14.00">movie :varchar(255)</text>
<text text-anchor="start" x="381.5" y="-197.3" font-family="Times,serif" font-size="14.00">tag_name :varchar(255)</text>
<text text-anchor="start" x="381.5" y="-182.3" font-family="Times,serif" font-size="14.00">count :int(11)</text>
</g>
<!-- User&#45;&gt;Video -->
<g id="edge3" class="edge"><title>User&#45;&gt;Video</title>
<path fill="none" stroke="#1c3e92" d="M447,-400.045C447,-393.61 447,-387.262 447,-381.042"/>
<ellipse fill="none" stroke="#1c3e92" cx="447" cy="-404.144" rx="4" ry="4"/>
<polygon fill="#1c3e92" stroke="#1c3e92" points="447,-380.702 451.5,-370.702 447,-375.702 447,-370.702 447,-370.702 447,-370.702 447,-375.702 442.5,-370.702 447,-380.702 447,-380.702"/>
</g>
<!-- View -->
<g id="node5" class="node"><title>View</title>
<path fill="none" stroke="black" d="M12,-15.5C12,-15.5 120,-15.5 120,-15.5 126,-15.5 132,-21.5 132,-27.5 132,-27.5 132,-109.5 132,-109.5 132,-115.5 126,-121.5 120,-121.5 120,-121.5 12,-121.5 12,-121.5 6,-121.5 0,-115.5 0,-109.5 0,-109.5 0,-27.5 0,-27.5 0,-21.5 6,-15.5 12,-15.5"/>
<text text-anchor="middle" x="66" y="-106.3" font-family="Times,serif" font-size="14.00">View</text>
<polyline fill="none" stroke="black" points="0,-98.5 132,-98.5 "/>
<text text-anchor="start" x="8" y="-83.3" font-family="Times,serif" font-size="14.00">id :bigint(20)</text>
<text text-anchor="start" x="8" y="-68.3" font-family="Times,serif" font-size="14.00">viewer_id :bigint(20)</text>
<text text-anchor="start" x="8" y="-53.3" font-family="Times,serif" font-size="14.00">video_id :bigint(20)</text>
<text text-anchor="start" x="8" y="-38.3" font-family="Times,serif" font-size="14.00">created_at :datetime</text>
<text text-anchor="start" x="8" y="-23.3" font-family="Times,serif" font-size="14.00">updated_at :datetime</text>
</g>
<!-- User&#45;&gt;View -->
<g id="edge6" class="edge"><title>User&#45;&gt;View</title>
<path fill="none" stroke="#94160c" d="M334.356,-411.43C333.244,-410.274 332.126,-409.13 331,-408 307.814,-384.721 290.962,-393.479 267,-371 191.631,-300.294 130.224,-196.182 95.8946,-130.652"/>
<ellipse fill="none" stroke="#94160c" cx="337.121" cy="-414.388" rx="4.00002" ry="4.00002"/>
<polygon fill="#94160c" stroke="#94160c" points="95.8388,-130.545 95.2257,-119.596 93.5353,-126.107 91.2317,-121.669 91.2317,-121.669 91.2317,-121.669 93.5353,-126.107 87.2377,-123.742 95.8388,-130.545 95.8388,-130.545"/>
</g>
<!-- Like -->
<g id="node6" class="node"><title>Like</title>
<path fill="none" stroke="black" d="M697.5,-15.5C697.5,-15.5 804.5,-15.5 804.5,-15.5 810.5,-15.5 816.5,-21.5 816.5,-27.5 816.5,-27.5 816.5,-109.5 816.5,-109.5 816.5,-115.5 810.5,-121.5 804.5,-121.5 804.5,-121.5 697.5,-121.5 697.5,-121.5 691.5,-121.5 685.5,-115.5 685.5,-109.5 685.5,-109.5 685.5,-27.5 685.5,-27.5 685.5,-21.5 691.5,-15.5 697.5,-15.5"/>
<text text-anchor="middle" x="751" y="-106.3" font-family="Times,serif" font-size="14.00">Like</text>
<polyline fill="none" stroke="black" points="685.5,-98.5 816.5,-98.5 "/>
<text text-anchor="start" x="693.5" y="-83.3" font-family="Times,serif" font-size="14.00">id :bigint(20)</text>
<text text-anchor="start" x="693.5" y="-68.3" font-family="Times,serif" font-size="14.00">liker_id :bigint(20)</text>
<text text-anchor="start" x="693.5" y="-53.3" font-family="Times,serif" font-size="14.00">created_at :datetime</text>
<text text-anchor="start" x="693.5" y="-38.3" font-family="Times,serif" font-size="14.00">updated_at :datetime</text>
<text text-anchor="start" x="693.5" y="-23.3" font-family="Times,serif" font-size="14.00">video_id :bigint(20)</text>
</g>
<!-- User&#45;&gt;Like -->
<g id="edge4" class="edge"><title>User&#45;&gt;Like</title>
<path fill="none" stroke="#ee1aef" d="M558.202,-412.604C614.259,-312.844 678.311,-198.857 716.659,-130.613"/>
<ellipse fill="none" stroke="#ee1aef" cx="556.139" cy="-416.276" rx="4.00002" ry="4.00002"/>
<polygon fill="#ee1aef" stroke="#ee1aef" points="716.767,-130.421 725.589,-123.908 719.216,-126.062 721.666,-121.703 721.666,-121.703 721.666,-121.703 719.216,-126.062 717.743,-119.499 716.767,-130.421 716.767,-130.421"/>
</g>
<!-- Dislike -->
<g id="node7" class="node"><title>Dislike</title>
<path fill="none" stroke="black" d="M543,-15.5C543,-15.5 655,-15.5 655,-15.5 661,-15.5 667,-21.5 667,-27.5 667,-27.5 667,-109.5 667,-109.5 667,-115.5 661,-121.5 655,-121.5 655,-121.5 543,-121.5 543,-121.5 537,-121.5 531,-115.5 531,-109.5 531,-109.5 531,-27.5 531,-27.5 531,-21.5 537,-15.5 543,-15.5"/>
<text text-anchor="middle" x="599" y="-106.3" font-family="Times,serif" font-size="14.00">Dislike</text>
<polyline fill="none" stroke="black" points="531,-98.5 667,-98.5 "/>
<text text-anchor="start" x="539" y="-83.3" font-family="Times,serif" font-size="14.00">id :bigint(20)</text>
<text text-anchor="start" x="539" y="-68.3" font-family="Times,serif" font-size="14.00">disliker_id :bigint(20)</text>
<text text-anchor="start" x="539" y="-53.3" font-family="Times,serif" font-size="14.00">created_at :datetime</text>
<text text-anchor="start" x="539" y="-38.3" font-family="Times,serif" font-size="14.00">updated_at :datetime</text>
<text text-anchor="start" x="539" y="-23.3" font-family="Times,serif" font-size="14.00">video_id :bigint(20)</text>
</g>
<!-- User&#45;&gt;Dislike -->
<g id="edge5" class="edge"><title>User&#45;&gt;Dislike</title>
<path fill="none" stroke="#e9e096" d="M521.133,-400.773C524.223,-390.738 527.197,-380.775 530,-371 553.487,-289.102 574.366,-192.904 586.847,-131.593"/>
<ellipse fill="none" stroke="#e9e096" cx="519.933" cy="-404.64" rx="4.00001" ry="4.00001"/>
<polygon fill="#e9e096" stroke="#e9e096" points="586.868,-131.488 593.263,-122.579 587.861,-126.587 588.853,-121.687 588.853,-121.687 588.853,-121.687 587.861,-126.587 584.442,-120.794 586.868,-131.488 586.868,-131.488"/>
</g>
<!-- Video&#45;&gt;Comment -->
<g id="edge10" class="edge"><title>Video&#45;&gt;Comment</title>
<path fill="none" stroke="#e187e2" d="M367.413,-197.174C352.347,-183.146 336.702,-168.609 322,-155 317.976,-151.275 313.851,-147.463 309.684,-143.615"/>
<ellipse fill="none" stroke="#e187e2" cx="370.452" cy="-200.004" rx="4.00002" ry="4.00002"/>
<polygon fill="#e187e2" stroke="#e187e2" points="309.498,-143.443 305.199,-133.355 305.823,-140.053 302.148,-136.662 302.148,-136.662 302.148,-136.662 305.823,-140.053 299.096,-139.97 309.498,-143.443 309.498,-143.443"/>
</g>
<!-- Video&#45;&gt;View -->
<g id="edge11" class="edge"><title>Video&#45;&gt;View</title>
<path fill="none" stroke="#9e6a25" d="M365.563,-243.833C301.767,-220.282 212.201,-182.987 141,-137 136.696,-134.22 132.396,-131.194 128.156,-128.015"/>
<ellipse fill="none" stroke="#9e6a25" cx="369.457" cy="-245.26" rx="4.00001" ry="4.00001"/>
<polygon fill="#9e6a25" stroke="#9e6a25" points="127.981,-127.878 122.854,-118.185 124.035,-124.807 120.09,-121.736 120.09,-121.736 120.09,-121.736 124.035,-124.807 117.326,-125.287 127.981,-127.878 127.981,-127.878"/>
</g>
<!-- Video&#45;&gt;Like -->
<g id="edge8" class="edge"><title>Video&#45;&gt;Like</title>
<path fill="none" stroke="#cc19d0" d="M527.656,-229.368C572.697,-204.565 629.032,-171.384 676,-137 679.861,-134.174 683.751,-131.182 687.621,-128.093"/>
<ellipse fill="none" stroke="#cc19d0" cx="524.034" cy="-231.352" rx="4.00002" ry="4.00002"/>
<polygon fill="#cc19d0" stroke="#cc19d0" points="687.778,-127.965 698.368,-125.12 691.649,-124.8 695.52,-121.636 695.52,-121.636 695.52,-121.636 691.649,-124.8 692.672,-118.152 687.778,-127.965 687.778,-127.965"/>
</g>
<!-- Video&#45;&gt;Dislike -->
<g id="edge9" class="edge"><title>Video&#45;&gt;Dislike</title>
<path fill="none" stroke="#235b18" d="M518.311,-167.938C521.554,-163.544 524.794,-159.215 528,-155 534.285,-146.737 541.064,-138.171 547.853,-129.794"/>
<ellipse fill="none" stroke="#235b18" cx="515.924" cy="-171.191" rx="4.00002" ry="4.00002"/>
<polygon fill="#235b18" stroke="#235b18" points="548.025,-129.583 557.834,-124.681 551.186,-125.709 554.348,-121.836 554.348,-121.836 554.348,-121.836 551.186,-125.709 550.862,-118.99 548.025,-129.583 548.025,-129.583"/>
</g>
<!-- Tag -->
<g id="node9" class="node"><title>Tag</title>
<path fill="none" stroke="black" d="M393.5,-15.5C393.5,-15.5 500.5,-15.5 500.5,-15.5 506.5,-15.5 512.5,-21.5 512.5,-27.5 512.5,-27.5 512.5,-109.5 512.5,-109.5 512.5,-115.5 506.5,-121.5 500.5,-121.5 500.5,-121.5 393.5,-121.5 393.5,-121.5 387.5,-121.5 381.5,-115.5 381.5,-109.5 381.5,-109.5 381.5,-27.5 381.5,-27.5 381.5,-21.5 387.5,-15.5 393.5,-15.5"/>
<text text-anchor="middle" x="447" y="-106.3" font-family="Times,serif" font-size="14.00">Tag</text>
<polyline fill="none" stroke="black" points="381.5,-98.5 512.5,-98.5 "/>
<text text-anchor="start" x="389.5" y="-83.3" font-family="Times,serif" font-size="14.00">id :bigint(20)</text>
<text text-anchor="start" x="389.5" y="-68.3" font-family="Times,serif" font-size="14.00">name :varchar(255)</text>
<text text-anchor="start" x="389.5" y="-53.3" font-family="Times,serif" font-size="14.00">occurence :int(11)</text>
<text text-anchor="start" x="389.5" y="-38.3" font-family="Times,serif" font-size="14.00">created_at :datetime</text>
<text text-anchor="start" x="389.5" y="-23.3" font-family="Times,serif" font-size="14.00">updated_at :datetime</text>
</g>
<!-- Video&#45;&gt;Tag -->
<g id="edge7" class="edge"><title>Video&#45;&gt;Tag</title>
<path fill="none" stroke="#897ce1" d="M447,-164.11C447,-153.037 447,-142.066 447,-131.733"/>
<polygon fill="#897ce1" stroke="#897ce1" points="447,-164.346 442.5,-174.346 447,-169.346 447,-174.346 447,-174.346 447,-174.346 447,-169.346 451.5,-174.346 447,-164.346 447,-164.346"/>
<polygon fill="#897ce1" stroke="#897ce1" points="447,-131.633 451.5,-121.633 447,-126.633 447,-121.633 447,-121.633 447,-121.633 447,-126.633 442.5,-121.633 447,-131.633 447,-131.633"/>
</g>
<!-- ApplicationRecord -->
<g id="node8" class="node"><title>ApplicationRecord</title>
<ellipse fill="none" stroke="black" cx="649" cy="-611.5" rx="77.1866" ry="18"/>
<text text-anchor="middle" x="649" y="-607.8" font-family="Times,serif" font-size="14.00">ApplicationRecord</text>
</g>
<!-- Ability -->
<g id="node10" class="node"><title>Ability</title>
<polygon fill="none" stroke="black" points="744.5,-588.5 744.5,-634.5 799.5,-634.5 799.5,-588.5 744.5,-588.5"/>
<text text-anchor="middle" x="772" y="-619.3" font-family="Times,serif" font-size="14.00">Ability</text>
<polyline fill="none" stroke="black" points="744.5,-611.5 799.5,-611.5 "/>
<text text-anchor="middle" x="772" y="-596.3" font-family="Times,serif" font-size="14.00"> </text>
</g>
</g>
</svg>
